<?xml version="1.0" encoding="utf-8" standalone="no"?>
<!DOCTYPE svg PUBLIC "-//W3C//DTD SVG 1.1//EN"
  "http://www.w3.org/Graphics/SVG/1.1/DTD/svg11.dtd">
<svg xmlns:xlink="http://www.w3.org/1999/xlink" width="904.794pt" height="197.91pt" viewBox="0 0 904.794 197.91" xmlns="http://www.w3.org/2000/svg" version="1.1">
 <metadata>
  <rdf:RDF xmlns:dc="http://purl.org/dc/elements/1.1/" xmlns:cc="http://creativecommons.org/ns#" xmlns:rdf="http://www.w3.org/1999/02/22-rdf-syntax-ns#">
   <cc:Work>
    <dc:type rdf:resource="http://purl.org/dc/dcmitype/StillImage"/>
    <dc:date>2026-06-14T20:29:35.836385</dc:date>
    <dc:format>image/svg+xml</dc:format>
    <dc:creator>
     <cc:Agent>
      <dc:title>Matplotlib v3.9.1, https://matplotlib.org/</dc:title>
     </cc:Agent>
    </dc:creator>
   </cc:Work>
  </rdf:RDF>
 </metadata>
 <defs>
  <style type="text/css">*{stroke-linejoin: round; stroke-linecap: butt}</style>
 </defs>
 <g id="figure_1">
  <g id="patch_1">
   <path d="M 0 197.91 
L 904.794 197.91 
L 904.794 0 
L 0 0 
z
" style="fill: #ffffff"/>
  </g>
  <g id="axes_1">
   <g id="patch_2">
    <path d="M 234.062144 148.53 
L 445.646623 148.53 
L 445.646623 51.43 
L 234.062144 51.43 
z
" style="fill: #ffffff"/>
   </g>
   <g id="matplotlib.axis_1">
    <g id="xtick_1">
     <g id="line2d_1">
      <path d="M 241.559858 148.53 
L 241.559858 51.43 
" clip-path="url(#p3f7bde6933)" style="fill: none; stroke: #d9d9d9; stroke-width: 0.7; stroke-linecap: square"/>
     </g>
     <g id="line2d_2">
      <defs>
       <path id="m32d8cb1ea9" d="M 0 0 
L 0 3 
" style="stroke: #000000; stroke-width: 0.8"/>
      </defs>
      <g>
       <use xlink:href="#m32d8cb1ea9" x="241.559858" y="148.53" style="stroke: #000000; stroke-width: 0.8"/>
      </g>
     </g>
     <g id="text_1">
      <text style="font: 7.5px 'DejaVu Sans'; text-anchor: middle" x="241.559858" y="160.728828" transform="rotate(-0 241.559858 160.728828)">164</text>
     </g>
    </g>
    <g id="xtick_2">
     <g id="line2d_3">
      <path d="M 290.885922 148.53 
L 290.885922 51.43 
" clip-path="url(#p3f7bde6933)" style="fill: none; stroke: #d9d9d9; stroke-width: 0.7; stroke-linecap: square"/>
     </g>
     <g id="line2d_4">
      <g>
       <use xlink:href="#m32d8cb1ea9" x="290.885922" y="148.53" style="stroke: #000000; stroke-width: 0.8"/>
      </g>
     </g>
     <g id="text_2">
      <text style="font: 7.5px 'DejaVu Sans'; text-anchor: middle" x="290.885922" y="160.728828" transform="rotate(-0 290.885922 160.728828)">328</text>
     </g>
    </g>
    <g id="xtick_3">
     <g id="line2d_5">
      <path d="M 340.211987 148.53 
L 340.211987 51.43 
" clip-path="url(#p3f7bde6933)" style="fill: none; stroke: #d9d9d9; stroke-width: 0.7; stroke-linecap: square"/>
     </g>
     <g id="line2d_6">
      <g>
       <use xlink:href="#m32d8cb1ea9" x="340.211987" y="148.53" style="stroke: #000000; stroke-width: 0.8"/>
      </g>
     </g>
     <g id="text_3">
      <text style="font: 7.5px 'DejaVu Sans'; text-anchor: middle" x="340.211987" y="160.728828" transform="rotate(-0 340.211987 160.728828)">655</text>
     </g>
    </g>
    <g id="xtick_4">
     <g id="line2d_7">
      <path d="M 389.538051 148.53 
L 389.538051 51.43 
" clip-path="url(#p3f7bde6933)" style="fill: none; stroke: #d9d9d9; stroke-width: 0.7; stroke-linecap: square"/>
     </g>
     <g id="line2d_8">
      <g>
       <use xlink:href="#m32d8cb1ea9" x="389.538051" y="148.53" style="stroke: #000000; stroke-width: 0.8"/>
      </g>
     </g>
     <g id="text_4">
      <text style="font: 7.5px 'DejaVu Sans'; text-anchor: middle" x="389.538051" y="160.728828" transform="rotate(-0 389.538051 160.728828)">1.3k</text>
     </g>
    </g>
    <g id="xtick_5">
     <g id="line2d_9">
      <path d="M 438.864115 148.53 
L 438.864115 51.43 
" clip-path="url(#p3f7bde6933)" style="fill: none; stroke: #d9d9d9; stroke-width: 0.7; stroke-linecap: square"/>
     </g>
     <g id="line2d_10">
      <g>
       <use xlink:href="#m32d8cb1ea9" x="438.864115" y="148.53" style="stroke: #000000; stroke-width: 0.8"/>
      </g>
     </g>
     <g id="text_5">
      <text style="font: 7.5px 'DejaVu Sans'; text-anchor: middle" x="438.864115" y="160.728828" transform="rotate(-0 438.864115 160.728828)">2.6k</text>
     </g>
    </g>
    <g id="text_6">
     <text style="font: 8.2px 'DejaVu Sans'; text-anchor: middle" x="339.854383" y="172.519313" transform="rotate(-0 339.854383 172.519313)">Equivalent atoms per graph (50 directed neighbors)</text>
    </g>
   </g>
   <g id="matplotlib.axis_2">
    <g id="ytick_1">
     <g id="line2d_11">
      <path d="M 234.062144 100.436718 
L 445.646623 100.436718 
" clip-path="url(#p3f7bde6933)" style="fill: none; stroke: #d9d9d9; stroke-width: 0.7; stroke-linecap: square"/>
     </g>
     <g id="line2d_12">
      <defs>
       <path id="m96092b8f99" d="M 0 0 
L -3 0 
" style="stroke: #000000; stroke-width: 0.8"/>
      </defs>
      <g>
       <use xlink:href="#m96092b8f99" x="234.062144" y="100.436718" style="stroke: #000000; stroke-width: 0.8"/>
      </g>
     </g>
     <g id="text_7">
      <!-- $\mathdefault{10^{1}}$ -->
      <g transform="translate(214.362144 103.286132)">
       <text>
        <tspan style="font: 7.5px 'DejaVu Sans'" x="0 4.771729" y="-0.8578125000000005">10</tspan>
        <tspan style="font: 5.25px 'DejaVu Sans'" x="9.62002" y="-3.9203125000000005">1</tspan>
       </text>
      </g>
     </g>
    </g>
    <g id="ytick_2">
     <g id="line2d_13">
      <path d="M 234.062144 136.830451 
L 445.646623 136.830451 
" clip-path="url(#p3f7bde6933)" style="fill: none; stroke: #eeeeee; stroke-width: 0.45; stroke-linecap: square"/>
     </g>
     <g id="line2d_14">
      <defs>
       <path id="mcc904068c5" d="M 0 0 
L -2 0 
" style="stroke: #000000; stroke-width: 0.6"/>
      </defs>
      <g>
       <use xlink:href="#mcc904068c5" x="234.062144" y="136.830451" style="stroke: #000000; stroke-width: 0.6"/>
      </g>
     </g>
    </g>
    <g id="ytick_3">
     <g id="line2d_15">
      <path d="M 234.062144 127.661791 
L 445.646623 127.661791 
" clip-path="url(#p3f7bde6933)" style="fill: none; stroke: #eeeeee; stroke-width: 0.45; stroke-linecap: square"/>
     </g>
     <g id="line2d_16">
      <g>
       <use xlink:href="#mcc904068c5" x="234.062144" y="127.661791" style="stroke: #000000; stroke-width: 0.6"/>
      </g>
     </g>
    </g>
    <g id="ytick_4">
     <g id="line2d_17">
      <path d="M 234.062144 121.156523 
L 445.646623 121.156523 
" clip-path="url(#p3f7bde6933)" style="fill: none; stroke: #eeeeee; stroke-width: 0.45; stroke-linecap: square"/>
     </g>
     <g id="line2d_18">
      <g>
       <use xlink:href="#mcc904068c5" x="234.062144" y="121.156523" style="stroke: #000000; stroke-width: 0.6"/>
      </g>
     </g>
    </g>
    <g id="ytick_5">
     <g id="line2d_19">
      <path d="M 234.062144 116.110646 
L 445.646623 116.110646 
" clip-path="url(#p3f7bde6933)" style="fill: none; stroke: #eeeeee; stroke-width: 0.45; stroke-linecap: square"/>
     </g>
     <g id="line2d_20">
      <g>
       <use xlink:href="#mcc904068c5" x="234.062144" y="116.110646" style="stroke: #000000; stroke-width: 0.6"/>
      </g>
     </g>
    </g>
    <g id="ytick_6">
     <g id="line2d_21">
      <path d="M 234.062144 111.987864 
L 445.646623 111.987864 
" clip-path="url(#p3f7bde6933)" style="fill: none; stroke: #eeeeee; stroke-width: 0.45; stroke-linecap: square"/>
     </g>
     <g id="line2d_22">
      <g>
       <use xlink:href="#mcc904068c5" x="234.062144" y="111.987864" style="stroke: #000000; stroke-width: 0.6"/>
      </g>
     </g>
    </g>
    <g id="ytick_7">
     <g id="line2d_23">
      <path d="M 234.062144 108.502101 
L 445.646623 108.502101 
" clip-path="url(#p3f7bde6933)" style="fill: none; stroke: #eeeeee; stroke-width: 0.45; stroke-linecap: square"/>
     </g>
     <g id="line2d_24">
      <g>
       <use xlink:href="#mcc904068c5" x="234.062144" y="108.502101" style="stroke: #000000; stroke-width: 0.6"/>
      </g>
     </g>
    </g>
    <g id="ytick_8">
     <g id="line2d_25">
      <path d="M 234.062144 105.482596 
L 445.646623 105.482596 
" clip-path="url(#p3f7bde6933)" style="fill: none; stroke: #eeeeee; stroke-width: 0.45; stroke-linecap: square"/>
     </g>
     <g id="line2d_26">
      <g>
       <use xlink:href="#mcc904068c5" x="234.062144" y="105.482596" style="stroke: #000000; stroke-width: 0.6"/>
      </g>
     </g>
    </g>
    <g id="ytick_9">
     <g id="line2d_27">
      <path d="M 234.062144 102.819204 
L 445.646623 102.819204 
" clip-path="url(#p3f7bde6933)" style="fill: none; stroke: #eeeeee; stroke-width: 0.45; stroke-linecap: square"/>
     </g>
     <g id="line2d_28">
      <g>
       <use xlink:href="#mcc904068c5" x="234.062144" y="102.819204" style="stroke: #000000; stroke-width: 0.6"/>
      </g>
     </g>
    </g>
    <g id="ytick_10">
     <g id="line2d_29">
      <path d="M 234.062144 84.762791 
L 445.646623 84.762791 
" clip-path="url(#p3f7bde6933)" style="fill: none; stroke: #eeeeee; stroke-width: 0.45; stroke-linecap: square"/>
     </g>
     <g id="line2d_30">
      <g>
       <use xlink:href="#mcc904068c5" x="234.062144" y="84.762791" style="stroke: #000000; stroke-width: 0.6"/>
      </g>
     </g>
    </g>
    <g id="ytick_11">
     <g id="line2d_31">
      <path d="M 234.062144 75.594131 
L 445.646623 75.594131 
" clip-path="url(#p3f7bde6933)" style="fill: none; stroke: #eeeeee; stroke-width: 0.45; stroke-linecap: square"/>
     </g>
     <g id="line2d_32">
      <g>
       <use xlink:href="#mcc904068c5" x="234.062144" y="75.594131" style="stroke: #000000; stroke-width: 0.6"/>
      </g>
     </g>
    </g>
    <g id="ytick_12">
     <g id="line2d_33">
      <path d="M 234.062144 69.088864 
L 445.646623 69.088864 
" clip-path="url(#p3f7bde6933)" style="fill: none; stroke: #eeeeee; stroke-width: 0.45; stroke-linecap: square"/>
     </g>
     <g id="line2d_34">
      <g>
       <use xlink:href="#mcc904068c5" x="234.062144" y="69.088864" style="stroke: #000000; stroke-width: 0.6"/>
      </g>
     </g>
    </g>
    <g id="ytick_13">
     <g id="line2d_35">
      <path d="M 234.062144 64.042986 
L 445.646623 64.042986 
" clip-path="url(#p3f7bde6933)" style="fill: none; stroke: #eeeeee; stroke-width: 0.45; stroke-linecap: square"/>
     </g>
     <g id="line2d_36">
      <g>
       <use xlink:href="#mcc904068c5" x="234.062144" y="64.042986" style="stroke: #000000; stroke-width: 0.6"/>
      </g>
     </g>
    </g>
    <g id="ytick_14">
     <g id="line2d_37">
      <path d="M 234.062144 59.920204 
L 445.646623 59.920204 
" clip-path="url(#p3f7bde6933)" style="fill: none; stroke: #eeeeee; stroke-width: 0.45; stroke-linecap: square"/>
     </g>
     <g id="line2d_38">
      <g>
       <use xlink:href="#mcc904068c5" x="234.062144" y="59.920204" style="stroke: #000000; stroke-width: 0.6"/>
      </g>
     </g>
    </g>
    <g id="ytick_15">
     <g id="line2d_39">
      <path d="M 234.062144 56.434441 
L 445.646623 56.434441 
" clip-path="url(#p3f7bde6933)" style="fill: none; stroke: #eeeeee; stroke-width: 0.45; stroke-linecap: square"/>
     </g>
     <g id="line2d_40">
      <g>
       <use xlink:href="#mcc904068c5" x="234.062144" y="56.434441" style="stroke: #000000; stroke-width: 0.6"/>
      </g>
     </g>
    </g>
    <g id="ytick_16">
     <g id="line2d_41">
      <path d="M 234.062144 53.414936 
L 445.646623 53.414936 
" clip-path="url(#p3f7bde6933)" style="fill: none; stroke: #eeeeee; stroke-width: 0.45; stroke-linecap: square"/>
     </g>
     <g id="line2d_42">
      <g>
       <use xlink:href="#mcc904068c5" x="234.062144" y="53.414936" style="stroke: #000000; stroke-width: 0.6"/>
      </g>
     </g>
    </g>
    <g id="text_8">
     <!-- Throughput (10$^3$ equiv. atoms s$^{-1}$) -->
     <g transform="translate(208.640144 171.361) rotate(-90)">
      <text>
       <tspan style="font: 8.2px 'DejaVu Sans'" x="0 5.039429 10.268188 13.660034 18.70752 23.936279 29.173096 34.401855 39.638672 44.867432 48.102173 50.724609 53.943237 59.192139 68.410583 71.03302 76.108704 81.34552 86.57428 88.866394 93.748718 96.371155 98.993591 104.049133 107.283875 112.33136 120.367859 124.666077 127.288513 140.395093" y="-0.78125">Throughput (10 equiv. atoms s)</tspan>
       <tspan style="font: 5.74px 'DejaVu Sans'" x="64.517603 131.663293 136.502112" y="-3.84375">3−1</tspan>
      </text>
     </g>
    </g>
   </g>
   <g id="line2d_43">
    <path d="M 241.559858 144.116364 
L 290.885922 107.986921 
L 340.211987 92.313499 
L 389.538051 81.482279 
L 438.864115 76.014848 
" clip-path="url(#p3f7bde6933)" style="fill: none; stroke: #4c78a8; stroke-width: 1.8; stroke-linecap: square"/>
    <defs>
     <path id="m9764ae247f" d="M 0 2.4 
C 0.636487 2.4 1.246992 2.147121 1.697056 1.697056 
C 2.147121 1.246992 2.4 0.636487 2.4 0 
C 2.4 -0.636487 2.147121 -1.246992 1.697056 -1.697056 
C 1.246992 -2.147121 0.636487 -2.4 0 -2.4 
C -0.636487 -2.4 -1.246992 -2.147121 -1.697056 -1.697056 
C -2.147121 -1.246992 -2.4 -0.636487 -2.4 0 
C -2.4 0.636487 -2.147121 1.246992 -1.697056 1.697056 
C -1.246992 2.147121 -0.636487 2.4 0 2.4 
z
" style="stroke: #ffffff; stroke-width: 0.45"/>
    </defs>
    <g clip-path="url(#p3f7bde6933)">
     <use xlink:href="#m9764ae247f" x="241.559858" y="144.116364" style="fill: #4c78a8; stroke: #ffffff; stroke-width: 0.45"/>
     <use xlink:href="#m9764ae247f" x="290.885922" y="107.986921" style="fill: #4c78a8; stroke: #ffffff; stroke-width: 0.45"/>
     <use xlink:href="#m9764ae247f" x="340.211987" y="92.313499" style="fill: #4c78a8; stroke: #ffffff; stroke-width: 0.45"/>
     <use xlink:href="#m9764ae247f" x="389.538051" y="81.482279" style="fill: #4c78a8; stroke: #ffffff; stroke-width: 0.45"/>
     <use xlink:href="#m9764ae247f" x="438.864115" y="76.014848" style="fill: #4c78a8; stroke: #ffffff; stroke-width: 0.45"/>
    </g>
   </g>
   <g id="line2d_44">
    <path d="M 241.559858 118.71527 
L 290.885922 102.854205 
L 340.211987 87.684562 
L 389.538051 71.52644 
L 438.864115 55.843636 
" clip-path="url(#p3f7bde6933)" style="fill: none; stroke: #f58518; stroke-width: 1.8; stroke-linecap: square"/>
    <defs>
     <path id="m515f232362" d="M -2.4 2.4 
L 2.4 2.4 
L 2.4 -2.4 
L -2.4 -2.4 
z
" style="stroke: #ffffff; stroke-width: 0.45; stroke-linejoin: miter"/>
    </defs>
    <g clip-path="url(#p3f7bde6933)">
     <use xlink:href="#m515f232362" x="241.559858" y="118.71527" style="fill: #f58518; stroke: #ffffff; stroke-width: 0.45; stroke-linejoin: miter"/>
     <use xlink:href="#m515f232362" x="290.885922" y="102.854205" style="fill: #f58518; stroke: #ffffff; stroke-width: 0.45; stroke-linejoin: miter"/>
     <use xlink:href="#m515f232362" x="340.211987" y="87.684562" style="fill: #f58518; stroke: #ffffff; stroke-width: 0.45; stroke-linejoin: miter"/>
     <use xlink:href="#m515f232362" x="389.538051" y="71.52644" style="fill: #f58518; stroke: #ffffff; stroke-width: 0.45; stroke-linejoin: miter"/>
     <use xlink:href="#m515f232362" x="438.864115" y="55.843636" style="fill: #f58518; stroke: #ffffff; stroke-width: 0.45; stroke-linejoin: miter"/>
    </g>
   </g>
   <g id="line2d_45">
    <path d="M 241.559858 112.296819 
L 290.885922 96.995903 
L 340.211987 83.917036 
L 389.538051 81.290244 
L 438.864115 81.006653 
" clip-path="url(#p3f7bde6933)" style="fill: none; stroke: #54a24b; stroke-width: 1.8; stroke-linecap: square"/>
    <defs>
     <path id="mfd015d6d79" d="M 0 -2.4 
L -2.4 2.4 
L 2.4 2.4 
z
" style="stroke: #ffffff; stroke-width: 0.45; stroke-linejoin: miter"/>
    </defs>
    <g clip-path="url(#p3f7bde6933)">
     <use xlink:href="#mfd015d6d79" x="241.559858" y="112.296819" style="fill: #54a24b; stroke: #ffffff; stroke-width: 0.45; stroke-linejoin: miter"/>
     <use xlink:href="#mfd015d6d79" x="290.885922" y="96.995903" style="fill: #54a24b; stroke: #ffffff; stroke-width: 0.45; stroke-linejoin: miter"/>
     <use xlink:href="#mfd015d6d79" x="340.211987" y="83.917036" style="fill: #54a24b; stroke: #ffffff; stroke-width: 0.45; stroke-linejoin: miter"/>
     <use xlink:href="#mfd015d6d79" x="389.538051" y="81.290244" style="fill: #54a24b; stroke: #ffffff; stroke-width: 0.45; stroke-linejoin: miter"/>
     <use xlink:href="#mfd015d6d79" x="438.864115" y="81.006653" style="fill: #54a24b; stroke: #ffffff; stroke-width: 0.45; stroke-linejoin: miter"/>
    </g>
   </g>
   <g id="line2d_46">
    <path d="M 241.559858 88.644634 
L 290.885922 74.057988 
L 340.211987 67.574933 
L 389.538051 65.814611 
L 438.864115 65.829142 
" clip-path="url(#p3f7bde6933)" style="fill: none; stroke: #b279a2; stroke-width: 1.8; stroke-linecap: square"/>
    <defs>
     <path id="m68a99f7c3e" d="M -0 3.394113 
L 3.394113 0 
L 0 -3.394113 
L -3.394113 -0 
z
" style="stroke: #ffffff; stroke-width: 0.45; stroke-linejoin: miter"/>
    </defs>
    <g clip-path="url(#p3f7bde6933)">
     <use xlink:href="#m68a99f7c3e" x="241.559858" y="88.644634" style="fill: #b279a2; stroke: #ffffff; stroke-width: 0.45; stroke-linejoin: miter"/>
     <use xlink:href="#m68a99f7c3e" x="290.885922" y="74.057988" style="fill: #b279a2; stroke: #ffffff; stroke-width: 0.45; stroke-linejoin: miter"/>
     <use xlink:href="#m68a99f7c3e" x="340.211987" y="67.574933" style="fill: #b279a2; stroke: #ffffff; stroke-width: 0.45; stroke-linejoin: miter"/>
     <use xlink:href="#m68a99f7c3e" x="389.538051" y="65.814611" style="fill: #b279a2; stroke: #ffffff; stroke-width: 0.45; stroke-linejoin: miter"/>
     <use xlink:href="#m68a99f7c3e" x="438.864115" y="65.829142" style="fill: #b279a2; stroke: #ffffff; stroke-width: 0.45; stroke-linejoin: miter"/>
    </g>
   </g>
   <g id="line2d_47">
    <path d="M 241.559858 95.410749 
L 290.885922 80.347566 
L 340.211987 66.162687 
L 389.538051 61.730967 
L 438.864115 61.219401 
" clip-path="url(#p3f7bde6933)" style="fill: none; stroke: #e45756; stroke-width: 1.8; stroke-linecap: square"/>
    <defs>
     <path id="m0e9eebc343" d="M -0.8 2.4 
L 0.8 2.4 
L 0.8 0.8 
L 2.4 0.8 
L 2.4 -0.8 
L 0.8 -0.8 
L 0.8 -2.4 
L -0.8 -2.4 
L -0.8 -0.8 
L -2.4 -0.8 
L -2.4 0.8 
L -0.8 0.8 
z
" style="stroke: #ffffff; stroke-width: 0.45; stroke-linejoin: miter"/>
    </defs>
    <g clip-path="url(#p3f7bde6933)">
     <use xlink:href="#m0e9eebc343" x="241.559858" y="95.410749" style="fill: #e45756; stroke: #ffffff; stroke-width: 0.45; stroke-linejoin: miter"/>
     <use xlink:href="#m0e9eebc343" x="290.885922" y="80.347566" style="fill: #e45756; stroke: #ffffff; stroke-width: 0.45; stroke-linejoin: miter"/>
     <use xlink:href="#m0e9eebc343" x="340.211987" y="66.162687" style="fill: #e45756; stroke: #ffffff; stroke-width: 0.45; stroke-linejoin: miter"/>
     <use xlink:href="#m0e9eebc343" x="389.538051" y="61.730967" style="fill: #e45756; stroke: #ffffff; stroke-width: 0.45; stroke-linejoin: miter"/>
     <use xlink:href="#m0e9eebc343" x="438.864115" y="61.219401" style="fill: #e45756; stroke: #ffffff; stroke-width: 0.45; stroke-linejoin: miter"/>
    </g>
   </g>
   <g id="patch_3">
    <path d="M 234.062144 148.53 
L 234.062144 51.43 
" style="fill: none; stroke: #000000; stroke-width: 0.8; stroke-linejoin: miter; stroke-linecap: square"/>
   </g>
   <g id="patch_4">
    <path d="M 234.062144 148.53 
L 445.646623 148.53 
" style="fill: none; stroke: #000000; stroke-width: 0.8; stroke-linejoin: miter; stroke-linecap: square"/>
   </g>
   <g id="text_9">
    <!-- $\bf{a}$   Training step throughput -->
    <g transform="translate(234.062144 47.43)">
     <text>
      <tspan style="font: 700 8.4px 'DejaVu Sans'" x="0" y="-0.921875">a</tspan>
      <tspan style="font: 8.4px 'DejaVu Sans'" x="5.651489 8.31366 10.97583 13.638 18.753784 22.197021 27.329163 29.656006 34.963989 37.290833 42.598816 47.914978 50.577148 54.940491 58.224243 63.376831 68.692993 71.355164 74.638916 79.946899 83.390137 88.514099 93.822083 99.138245 104.446228 109.76239 115.070374" y="-0.921875">   Training step throughput</tspan>
     </text>
    </g>
   </g>
  </g>
  <g id="axes_2">
   <g id="patch_5">
    <path d="M 491.462144 148.53 
L 703.046623 148.53 
L 703.046623 51.43 
L 491.462144 51.43 
z
" style="fill: #ffffff"/>
   </g>
   <g id="matplotlib.axis_3">
    <g id="xtick_6">
     <g id="line2d_48">
      <path d="M 498.959858 148.53 
L 498.959858 51.43 
" clip-path="url(#p20e838f305)" style="fill: none; stroke: #d9d9d9; stroke-width: 0.7; stroke-linecap: square"/>
     </g>
     <g id="line2d_49">
      <g>
       <use xlink:href="#m32d8cb1ea9" x="498.959858" y="148.53" style="stroke: #000000; stroke-width: 0.8"/>
      </g>
     </g>
     <g id="text_10">
      <text style="font: 7.5px 'DejaVu Sans'; text-anchor: middle" x="498.959858" y="160.728828" transform="rotate(-0 498.959858 160.728828)">164</text>
     </g>
    </g>
    <g id="xtick_7">
     <g id="line2d_50">
      <path d="M 548.285922 148.53 
L 548.285922 51.43 
" clip-path="url(#p20e838f305)" style="fill: none; stroke: #d9d9d9; stroke-width: 0.7; stroke-linecap: square"/>
     </g>
     <g id="line2d_51">
      <g>
       <use xlink:href="#m32d8cb1ea9" x="548.285922" y="148.53" style="stroke: #000000; stroke-width: 0.8"/>
      </g>
     </g>
     <g id="text_11">
      <text style="font: 7.5px 'DejaVu Sans'; text-anchor: middle" x="548.285922" y="160.728828" transform="rotate(-0 548.285922 160.728828)">328</text>
     </g>
    </g>
    <g id="xtick_8">
     <g id="line2d_52">
      <path d="M 597.611987 148.53 
L 597.611987 51.43 
" clip-path="url(#p20e838f305)" style="fill: none; stroke: #d9d9d9; stroke-width: 0.7; stroke-linecap: square"/>
     </g>
     <g id="line2d_53">
      <g>
       <use xlink:href="#m32d8cb1ea9" x="597.611987" y="148.53" style="stroke: #000000; stroke-width: 0.8"/>
      </g>
     </g>
     <g id="text_12">
      <text style="font: 7.5px 'DejaVu Sans'; text-anchor: middle" x="597.611987" y="160.728828" transform="rotate(-0 597.611987 160.728828)">655</text>
     </g>
    </g>
    <g id="xtick_9">
     <g id="line2d_54">
      <path d="M 646.938051 148.53 
L 646.938051 51.43 
" clip-path="url(#p20e838f305)" style="fill: none; stroke: #d9d9d9; stroke-width: 0.7; stroke-linecap: square"/>
     </g>
     <g id="line2d_55">
      <g>
       <use xlink:href="#m32d8cb1ea9" x="646.938051" y="148.53" style="stroke: #000000; stroke-width: 0.8"/>
      </g>
     </g>
     <g id="text_13">
      <text style="font: 7.5px 'DejaVu Sans'; text-anchor: middle" x="646.938051" y="160.728828" transform="rotate(-0 646.938051 160.728828)">1.3k</text>
     </g>
    </g>
    <g id="xtick_10">
     <g id="line2d_56">
      <path d="M 696.264115 148.53 
L 696.264115 51.43 
" clip-path="url(#p20e838f305)" style="fill: none; stroke: #d9d9d9; stroke-width: 0.7; stroke-linecap: square"/>
     </g>
     <g id="line2d_57">
      <g>
       <use xlink:href="#m32d8cb1ea9" x="696.264115" y="148.53" style="stroke: #000000; stroke-width: 0.8"/>
      </g>
     </g>
     <g id="text_14">
      <text style="font: 7.5px 'DejaVu Sans'; text-anchor: middle" x="696.264115" y="160.728828" transform="rotate(-0 696.264115 160.728828)">2.6k</text>
     </g>
    </g>
    <g id="text_15">
     <text style="font: 8.2px 'DejaVu Sans'; text-anchor: middle" x="597.254383" y="172.519313" transform="rotate(-0 597.254383 172.519313)">Equivalent atoms per graph (50 directed neighbors)</text>
    </g>
   </g>
   <g id="matplotlib.axis_4">
    <g id="ytick_17">
     <g id="line2d_58">
      <path d="M 491.462144 143.772104 
L 703.046623 143.772104 
" clip-path="url(#p20e838f305)" style="fill: none; stroke: #d9d9d9; stroke-width: 0.7; stroke-linecap: square"/>
     </g>
     <g id="line2d_59">
      <g>
       <use xlink:href="#m96092b8f99" x="491.462144" y="143.772104" style="stroke: #000000; stroke-width: 0.8"/>
      </g>
     </g>
     <g id="text_16">
      <!-- $\mathdefault{10^{1}}$ -->
      <g transform="translate(471.762144 146.621518)">
       <text>
        <tspan style="font: 7.5px 'DejaVu Sans'" x="0 4.771729" y="-0.8578125000000005">10</tspan>
        <tspan style="font: 5.25px 'DejaVu Sans'" x="9.62002" y="-3.9203125000000005">1</tspan>
       </text>
      </g>
     </g>
    </g>
    <g id="ytick_18">
     <g id="line2d_60">
      <path d="M 491.462144 73.025186 
L 703.046623 73.025186 
" clip-path="url(#p20e838f305)" style="fill: none; stroke: #d9d9d9; stroke-width: 0.7; stroke-linecap: square"/>
     </g>
     <g id="line2d_61">
      <g>
       <use xlink:href="#m96092b8f99" x="491.462144" y="73.025186" style="stroke: #000000; stroke-width: 0.8"/>
      </g>
     </g>
     <g id="text_17">
      <!-- $\mathdefault{10^{2}}$ -->
      <g transform="translate(471.762144 75.8746)">
       <text>
        <tspan style="font: 7.5px 'DejaVu Sans'" x="0 4.771729" y="-0.78125">10</tspan>
        <tspan style="font: 5.25px 'DejaVu Sans'" x="9.62002" y="-3.84375">2</tspan>
       </text>
      </g>
     </g>
    </g>
    <g id="ytick_19">
     <g id="line2d_62">
      <path d="M 491.462144 147.009306 
L 703.046623 147.009306 
" clip-path="url(#p20e838f305)" style="fill: none; stroke: #eeeeee; stroke-width: 0.45; stroke-linecap: square"/>
     </g>
     <g id="line2d_63">
      <g>
       <use xlink:href="#mcc904068c5" x="491.462144" y="147.009306" style="stroke: #000000; stroke-width: 0.6"/>
      </g>
     </g>
    </g>
    <g id="ytick_20">
     <g id="line2d_64">
      <path d="M 491.462144 122.47516 
L 703.046623 122.47516 
" clip-path="url(#p20e838f305)" style="fill: none; stroke: #eeeeee; stroke-width: 0.45; stroke-linecap: square"/>
     </g>
     <g id="line2d_65">
      <g>
       <use xlink:href="#mcc904068c5" x="491.462144" y="122.47516" style="stroke: #000000; stroke-width: 0.6"/>
      </g>
     </g>
    </g>
    <g id="ytick_21">
     <g id="line2d_66">
      <path d="M 491.462144 110.017246 
L 703.046623 110.017246 
" clip-path="url(#p20e838f305)" style="fill: none; stroke: #eeeeee; stroke-width: 0.45; stroke-linecap: square"/>
     </g>
     <g id="line2d_67">
      <g>
       <use xlink:href="#mcc904068c5" x="491.462144" y="110.017246" style="stroke: #000000; stroke-width: 0.6"/>
      </g>
     </g>
    </g>
    <g id="ytick_22">
     <g id="line2d_68">
      <path d="M 491.462144 101.178215 
L 703.046623 101.178215 
" clip-path="url(#p20e838f305)" style="fill: none; stroke: #eeeeee; stroke-width: 0.45; stroke-linecap: square"/>
     </g>
     <g id="line2d_69">
      <g>
       <use xlink:href="#mcc904068c5" x="491.462144" y="101.178215" style="stroke: #000000; stroke-width: 0.6"/>
      </g>
     </g>
    </g>
    <g id="ytick_23">
     <g id="line2d_70">
      <path d="M 491.462144 94.32213 
L 703.046623 94.32213 
" clip-path="url(#p20e838f305)" style="fill: none; stroke: #eeeeee; stroke-width: 0.45; stroke-linecap: square"/>
     </g>
     <g id="line2d_71">
      <g>
       <use xlink:href="#mcc904068c5" x="491.462144" y="94.32213" style="stroke: #000000; stroke-width: 0.6"/>
      </g>
     </g>
    </g>
    <g id="ytick_24">
     <g id="line2d_72">
      <path d="M 491.462144 88.720301 
L 703.046623 88.720301 
" clip-path="url(#p20e838f305)" style="fill: none; stroke: #eeeeee; stroke-width: 0.45; stroke-linecap: square"/>
     </g>
     <g id="line2d_73">
      <g>
       <use xlink:href="#mcc904068c5" x="491.462144" y="88.720301" style="stroke: #000000; stroke-width: 0.6"/>
      </g>
     </g>
    </g>
    <g id="ytick_25">
     <g id="line2d_74">
      <path d="M 491.462144 83.984022 
L 703.046623 83.984022 
" clip-path="url(#p20e838f305)" style="fill: none; stroke: #eeeeee; stroke-width: 0.45; stroke-linecap: square"/>
     </g>
     <g id="line2d_75">
      <g>
       <use xlink:href="#mcc904068c5" x="491.462144" y="83.984022" style="stroke: #000000; stroke-width: 0.6"/>
      </g>
     </g>
    </g>
    <g id="ytick_26">
     <g id="line2d_76">
      <path d="M 491.462144 79.88127 
L 703.046623 79.88127 
" clip-path="url(#p20e838f305)" style="fill: none; stroke: #eeeeee; stroke-width: 0.45; stroke-linecap: square"/>
     </g>
     <g id="line2d_77">
      <g>
       <use xlink:href="#mcc904068c5" x="491.462144" y="79.88127" style="stroke: #000000; stroke-width: 0.6"/>
      </g>
     </g>
    </g>
    <g id="ytick_27">
     <g id="line2d_78">
      <path d="M 491.462144 76.262387 
L 703.046623 76.262387 
" clip-path="url(#p20e838f305)" style="fill: none; stroke: #eeeeee; stroke-width: 0.45; stroke-linecap: square"/>
     </g>
     <g id="line2d_79">
      <g>
       <use xlink:href="#mcc904068c5" x="491.462144" y="76.262387" style="stroke: #000000; stroke-width: 0.6"/>
      </g>
     </g>
    </g>
    <g id="ytick_28">
     <g id="line2d_80">
      <path d="M 491.462144 51.728241 
L 703.046623 51.728241 
" clip-path="url(#p20e838f305)" style="fill: none; stroke: #eeeeee; stroke-width: 0.45; stroke-linecap: square"/>
     </g>
     <g id="line2d_81">
      <g>
       <use xlink:href="#mcc904068c5" x="491.462144" y="51.728241" style="stroke: #000000; stroke-width: 0.6"/>
      </g>
     </g>
    </g>
    <g id="text_18">
     <!-- Throughput (10$^3$ equiv. atoms s$^{-1}$) -->
     <g transform="translate(466.040144 171.361) rotate(-90)">
      <text>
       <tspan style="font: 8.2px 'DejaVu Sans'" x="0 5.039429 10.268188 13.660034 18.70752 23.936279 29.173096 34.401855 39.638672 44.867432 48.102173 50.724609 53.943237 59.192139 68.410583 71.03302 76.108704 81.34552 86.57428 88.866394 93.748718 96.371155 98.993591 104.049133 107.283875 112.33136 120.367859 124.666077 127.288513 140.395093" y="-0.78125">Throughput (10 equiv. atoms s)</tspan>
       <tspan style="font: 5.74px 'DejaVu Sans'" x="64.517603 131.663293 136.502112" y="-3.84375">3−1</tspan>
      </text>
     </g>
    </g>
   </g>
   <g id="line2d_82">
    <path d="M 498.959858 133.974657 
L 548.285922 112.982092 
L 597.611987 91.923042 
L 646.938051 72.048161 
L 696.264115 68.505534 
" clip-path="url(#p20e838f305)" style="fill: none; stroke: #4c78a8; stroke-width: 1.8; stroke-linecap: square"/>
    <g clip-path="url(#p20e838f305)">
     <use xlink:href="#m9764ae247f" x="498.959858" y="133.974657" style="fill: #4c78a8; stroke: #ffffff; stroke-width: 0.45"/>
     <use xlink:href="#m9764ae247f" x="548.285922" y="112.982092" style="fill: #4c78a8; stroke: #ffffff; stroke-width: 0.45"/>
     <use xlink:href="#m9764ae247f" x="597.611987" y="91.923042" style="fill: #4c78a8; stroke: #ffffff; stroke-width: 0.45"/>
     <use xlink:href="#m9764ae247f" x="646.938051" y="72.048161" style="fill: #4c78a8; stroke: #ffffff; stroke-width: 0.45"/>
     <use xlink:href="#m9764ae247f" x="696.264115" y="68.505534" style="fill: #4c78a8; stroke: #ffffff; stroke-width: 0.45"/>
    </g>
   </g>
   <g id="line2d_83">
    <path d="M 498.959858 144.116364 
L 548.285922 123.112509 
L 597.611987 102.090722 
L 646.938051 80.256671 
L 696.264115 59.529293 
" clip-path="url(#p20e838f305)" style="fill: none; stroke: #f58518; stroke-width: 1.8; stroke-linecap: square"/>
    <g clip-path="url(#p20e838f305)">
     <use xlink:href="#m515f232362" x="498.959858" y="144.116364" style="fill: #f58518; stroke: #ffffff; stroke-width: 0.45; stroke-linejoin: miter"/>
     <use xlink:href="#m515f232362" x="548.285922" y="123.112509" style="fill: #f58518; stroke: #ffffff; stroke-width: 0.45; stroke-linejoin: miter"/>
     <use xlink:href="#m515f232362" x="597.611987" y="102.090722" style="fill: #f58518; stroke: #ffffff; stroke-width: 0.45; stroke-linejoin: miter"/>
     <use xlink:href="#m515f232362" x="646.938051" y="80.256671" style="fill: #f58518; stroke: #ffffff; stroke-width: 0.45; stroke-linejoin: miter"/>
     <use xlink:href="#m515f232362" x="696.264115" y="59.529293" style="fill: #f58518; stroke: #ffffff; stroke-width: 0.45; stroke-linejoin: miter"/>
    </g>
   </g>
   <g id="line2d_84">
    <path d="M 498.959858 130.191572 
L 548.285922 109.456441 
L 597.611987 88.211834 
L 646.938051 83.110621 
L 696.264115 82.933952 
" clip-path="url(#p20e838f305)" style="fill: none; stroke: #54a24b; stroke-width: 1.8; stroke-linecap: square"/>
    <g clip-path="url(#p20e838f305)">
     <use xlink:href="#mfd015d6d79" x="498.959858" y="130.191572" style="fill: #54a24b; stroke: #ffffff; stroke-width: 0.45; stroke-linejoin: miter"/>
     <use xlink:href="#mfd015d6d79" x="548.285922" y="109.456441" style="fill: #54a24b; stroke: #ffffff; stroke-width: 0.45; stroke-linejoin: miter"/>
     <use xlink:href="#mfd015d6d79" x="597.611987" y="88.211834" style="fill: #54a24b; stroke: #ffffff; stroke-width: 0.45; stroke-linejoin: miter"/>
     <use xlink:href="#mfd015d6d79" x="646.938051" y="83.110621" style="fill: #54a24b; stroke: #ffffff; stroke-width: 0.45; stroke-linejoin: miter"/>
     <use xlink:href="#mfd015d6d79" x="696.264115" y="82.933952" style="fill: #54a24b; stroke: #ffffff; stroke-width: 0.45; stroke-linejoin: miter"/>
    </g>
   </g>
   <g id="line2d_85">
    <path d="M 498.959858 72.148926 
L 548.285922 65.72061 
L 597.611987 62.417663 
L 646.938051 63.416835 
L 696.264115 62.779391 
" clip-path="url(#p20e838f305)" style="fill: none; stroke: #b279a2; stroke-width: 1.8; stroke-linecap: square"/>
    <g clip-path="url(#p20e838f305)">
     <use xlink:href="#m68a99f7c3e" x="498.959858" y="72.148926" style="fill: #b279a2; stroke: #ffffff; stroke-width: 0.45; stroke-linejoin: miter"/>
     <use xlink:href="#m68a99f7c3e" x="548.285922" y="65.72061" style="fill: #b279a2; stroke: #ffffff; stroke-width: 0.45; stroke-linejoin: miter"/>
     <use xlink:href="#m68a99f7c3e" x="597.611987" y="62.417663" style="fill: #b279a2; stroke: #ffffff; stroke-width: 0.45; stroke-linejoin: miter"/>
     <use xlink:href="#m68a99f7c3e" x="646.938051" y="63.416835" style="fill: #b279a2; stroke: #ffffff; stroke-width: 0.45; stroke-linejoin: miter"/>
     <use xlink:href="#m68a99f7c3e" x="696.264115" y="62.779391" style="fill: #b279a2; stroke: #ffffff; stroke-width: 0.45; stroke-linejoin: miter"/>
    </g>
   </g>
   <g id="line2d_86">
    <path d="M 498.959858 84.0134 
L 548.285922 64.557396 
L 597.611987 57.020574 
L 646.938051 55.843636 
L 696.264115 56.464264 
" clip-path="url(#p20e838f305)" style="fill: none; stroke: #e45756; stroke-width: 1.8; stroke-linecap: square"/>
    <g clip-path="url(#p20e838f305)">
     <use xlink:href="#m0e9eebc343" x="498.959858" y="84.0134" style="fill: #e45756; stroke: #ffffff; stroke-width: 0.45; stroke-linejoin: miter"/>
     <use xlink:href="#m0e9eebc343" x="548.285922" y="64.557396" style="fill: #e45756; stroke: #ffffff; stroke-width: 0.45; stroke-linejoin: miter"/>
     <use xlink:href="#m0e9eebc343" x="597.611987" y="57.020574" style="fill: #e45756; stroke: #ffffff; stroke-width: 0.45; stroke-linejoin: miter"/>
     <use xlink:href="#m0e9eebc343" x="646.938051" y="55.843636" style="fill: #e45756; stroke: #ffffff; stroke-width: 0.45; stroke-linejoin: miter"/>
     <use xlink:href="#m0e9eebc343" x="696.264115" y="56.464264" style="fill: #e45756; stroke: #ffffff; stroke-width: 0.45; stroke-linejoin: miter"/>
    </g>
   </g>
   <g id="patch_6">
    <path d="M 491.462144 148.53 
L 491.462144 51.43 
" style="fill: none; stroke: #000000; stroke-width: 0.8; stroke-linejoin: miter; stroke-linecap: square"/>
   </g>
   <g id="patch_7">
    <path d="M 491.462144 148.53 
L 703.046623 148.53 
" style="fill: none; stroke: #000000; stroke-width: 0.8; stroke-linejoin: miter; stroke-linecap: square"/>
   </g>
   <g id="text_19">
    <!-- $\bf{b}$   Inference throughput -->
    <g transform="translate(491.462144 47.43)">
     <text>
      <tspan style="font: 700 8.4px 'DejaVu Sans'" x="0" y="-0.921875">b</tspan>
      <tspan style="font: 8.4px 'DejaVu Sans'" x="5.994995 8.657166 11.319336 13.981506 16.451477 21.75946 24.707886 29.860474 33.303711 38.456299 43.764282 48.368896 53.521484 56.183655 59.467407 64.775391 68.218628 73.34259 78.650574 83.966736 89.274719 94.590881 99.898865" y="-0.921875">   Inference throughput</tspan>
     </text>
    </g>
   </g>
  </g>
  <g id="text_20">
   <!-- RTX 4090, FP32, 64 channels, avg. directed degree 16. Each point is the fastest successful run over $(\ell_\mathrm{hidden}, \ell_\mathrm{max}) \in \{(1,2),(2,3)\}$; compiled = make_fx for training and AOTI for inference. Atom counts/throughput are converted from directed edges assuming 50 directed neighbors per atom. -->
   <g transform="translate(1.44 194.982)">
    <text>
     <tspan style="font: 6.2px 'DejaVu Sans'" x="0 4.342651 8.1604 12.442017 14.428711 18.405151 22.381592 26.358032 30.334473 32.321167 34.307861 37.902832 41.671753 45.648193 49.624634 51.611328 53.598022 57.574463 61.550903 63.537598 66.973877 70.935059 74.765015 78.726196 82.687378 86.532593 88.269043 91.525269 93.511963 95.498657 99.328613 103.027344 106.994629 108.981323 110.968018 114.935303 116.671753 119.241333 123.086548 126.522827 128.973389 132.818604 136.785889 138.772583 142.739868 146.585083 150.552368 153.121948 156.967163 160.812378 162.799072 166.775513 170.751953 172.738647 174.725342 178.674316 182.504272 185.940552 189.901733 191.888428 195.855713 199.679565 201.416016 205.377197 207.827759 209.814453 211.550903 214.807129 216.793823 219.244385 223.205566 227.050781 229.037476 231.237793 235.067749 238.323975 240.774536 244.619751 247.875977 250.326538 252.313232 255.569458 259.53064 262.966919 266.403198 270.248413 273.504639 276.760864 278.961182 282.922363 284.658813 286.645508 289.215088 293.17627 297.137451 299.124146 302.947998 306.646729 310.491943 313.061523 315.048218 335.239441 350.721497 354.377502 361.03949 365.01593 367.454285 371.430725 374.635071 378.611511 381.049866 384.254211 386.692566 390.669006 393.873352 397.849792 400.288147 404.264587 406.3703 408.356995 411.793274 415.617126 421.705383 425.672668 427.409119 429.145569 432.990784 436.958069 438.944763 444.18158 446.168274 452.256531 456.086487 459.705872 463.551086 466.676086 468.876404 472.575134 474.561829 476.762146 480.585999 483.155579 485.142273 487.592834 490.162415 493.992371 495.728821 499.690002 501.426453 505.387634 509.354919 511.341614 515.17157 519.132751 523.100037 525.086731 529.362244 534.281677 538.099426 539.942688 541.929382 544.1297 547.953552 550.523132 552.509827 554.246277 558.207458 560.407776 564.252991 566.822571 570.667786 574.628967 578.065247 581.910461 583.897156 585.88385 590.159363 592.609924 596.433777 602.522034 604.508728 607.945007 611.76886 615.730042 619.691223 622.141785 625.39801 627.503723 629.954285 633.915466 636.485046 640.308899 644.270081 648.237366 652.198547 656.165833 660.127014 662.577576 664.56427 668.394226 670.963806 674.809021 676.795715 680.231995 684.055847 688.017029 691.715759 695.560974 698.130554 700.581116 704.426331 708.393616 710.38031 712.580627 715.150208 718.97406 725.062317 727.049011 731.016296 732.752747 735.322327 739.167542 742.603821 745.054382 748.899597 752.866882 754.853577 758.698792 762.666077 766.633362 770.478577 773.734802 775.721497 779.551453 782.807678 786.063904 790.025085 796.113342 797.849792 801.810974 805.778259 807.764954 811.741394 815.717834 817.704529 821.671814 823.408264 825.977844 829.823059 833.259338 835.7099 839.555115 843.5224 845.509094 849.470276 853.315491 855.051941 859.019226 862.980408 866.947693 870.771545 873.341125 876.597351 878.584045 882.551331 886.396545 888.966125 890.95282 894.782776 897.233337 901.05719 907.145447" y="-0.4375">RTX 4090, FP32, 64 channels, avg. directed degree 16. Each point is the fastest successful run over (,)∈{(1,2),(2,3)}; compiled = make_fx for training and AOTI for inference. Atom counts/throughput are converted from directed edges assuming 50 directed neighbors per atom.</tspan>
     <tspan style="font: oblique 6.2px 'DejaVu Sans'" x="317.486572 338.443787" y="-0.4375">ℓℓ</tspan>
     <tspan style="font: 4.34px 'DejaVu Sans'" x="320.068359 322.841187 324.056702 326.833801 329.610901 332.302551 341.025574 345.287354 347.968323" y="0.546875">hiddenmax</tspan>
    </text>
   </g>
  </g>
  <g id="legend_1">
   <g id="line2d_87">
    <path d="M 277.116453 7.108906 
L 282.541453 7.108906 
L 287.966453 7.108906 
" style="fill: none; stroke: #4c78a8; stroke-width: 1.8; stroke-linecap: square"/>
    <g>
     <use xlink:href="#m9764ae247f" x="282.541453" y="7.108906" style="fill: #4c78a8; stroke: #ffffff; stroke-width: 0.45"/>
    </g>
   </g>
   <g id="text_21">
    <text style="font: 7px 'DejaVu Sans'; text-anchor: start" x="293.566453" y="9.558906" transform="rotate(-0 293.566453 9.558906)">MACE e3nn</text>
   </g>
   <g id="line2d_88">
    <path d="M 339.741297 7.108906 
L 345.166297 7.108906 
L 350.591297 7.108906 
" style="fill: none; stroke: #f58518; stroke-width: 1.8; stroke-linecap: square"/>
    <g>
     <use xlink:href="#m515f232362" x="345.166297" y="7.108906" style="fill: #f58518; stroke: #ffffff; stroke-width: 0.45; stroke-linejoin: miter"/>
    </g>
   </g>
   <g id="text_22">
    <text style="font: 7px 'DejaVu Sans'; text-anchor: start" x="356.191297" y="9.558906" transform="rotate(-0 356.191297 9.558906)">MACE cuEq</text>
   </g>
   <g id="line2d_89">
    <path d="M 401.884891 7.108906 
L 407.309891 7.108906 
L 412.734891 7.108906 
" style="fill: none; stroke: #54a24b; stroke-width: 1.8; stroke-linecap: square"/>
    <g>
     <use xlink:href="#mfd015d6d79" x="407.309891" y="7.108906" style="fill: #54a24b; stroke: #ffffff; stroke-width: 0.45; stroke-linejoin: miter"/>
    </g>
   </g>
   <g id="text_23">
    <text style="font: 7px 'DejaVu Sans'; text-anchor: start" x="418.334891" y="9.558906" transform="rotate(-0 418.334891 9.558906)">ICTD eager</text>
   </g>
   <g id="line2d_90">
    <path d="M 463.703641 7.108906 
L 469.128641 7.108906 
L 474.553641 7.108906 
" style="fill: none; stroke: #b279a2; stroke-width: 1.8; stroke-linecap: square"/>
    <g>
     <use xlink:href="#m68a99f7c3e" x="469.128641" y="7.108906" style="fill: #b279a2; stroke: #ffffff; stroke-width: 0.45; stroke-linejoin: miter"/>
    </g>
   </g>
   <g id="text_24">
    <text style="font: 7px 'DejaVu Sans'; text-anchor: start" x="480.153641" y="9.558906" transform="rotate(-0 480.153641 9.558906)">ICTD compiled</text>
   </g>
   <g id="line2d_91">
    <path d="M 537.331609 7.108906 
L 542.756609 7.108906 
L 548.181609 7.108906 
" style="fill: none; stroke: #e45756; stroke-width: 1.8; stroke-linecap: square"/>
    <g>
     <use xlink:href="#m0e9eebc343" x="542.756609" y="7.108906" style="fill: #e45756; stroke: #ffffff; stroke-width: 0.45; stroke-linejoin: miter"/>
    </g>
   </g>
   <g id="text_25">
    <text style="font: 7px 'DejaVu Sans'; text-anchor: start" x="553.781609" y="9.558906" transform="rotate(-0 553.781609 9.558906)">ICTD+cuEq compiled</text>
   </g>
  </g>
 </g>
 <defs>
  <clipPath id="p3f7bde6933">
   <rect x="234.062144" y="51.43" width="211.584479" height="97.1"/>
  </clipPath>
  <clipPath id="p20e838f305">
   <rect x="491.462144" y="51.43" width="211.584479" height="97.1"/>
  </clipPath>
 </defs>
</svg>
